<svg xmlns="http://www.w3.org/2000/svg" width="75" height="74" viewBox="0 0 75 74" fill="none"><circle cx="37.7285" cy="37" r="37" fill="#1F2732"></circle><path d="M35.6785 27.075L30.2035 37.275L26.7535 38.25C27.1535 37.5 27.6035 36.9 28.1035 36.45C28.6035 35.95 29.1785 35.7 29.8285 35.7C31.2785 35.7 32.5785 36.3 33.7285 37.5C34.9285 38.65 35.5285 40.15 35.5285 42C35.5285 43.95 34.8535 45.625 33.5035 47.025C32.2035 48.425 30.5785 49.125 28.6285 49.125C26.7785 49.125 25.1535 48.45 23.7535 47.1C22.4035 45.7 21.7285 44 21.7285 42C21.7285 41.2 21.8785 40.275 22.1785 39.225C22.5285 38.175 23.1535 36.8 24.0535 35.1L30.0535 24L35.6785 27.075ZM52.5535 27.075L47.0785 37.275L43.7035 38.25C44.0535 37.5 44.4785 36.9 44.9785 36.45C45.5285 35.95 46.1035 35.7 46.7035 35.7C48.1535 35.7 49.4785 36.3 50.6785 37.5C51.8785 38.65 52.4785 40.15 52.4785 42C52.4785 43.95 51.8035 45.625 50.4535 47.025C49.1535 48.425 47.5285 49.125 45.5785 49.125C43.7285 49.125 42.1035 48.45 40.7035 47.1C39.3535 45.7 38.6785 44 38.6785 42C38.6785 41.2 38.8285 40.275 39.1285 39.225C39.4285 38.175 40.0285 36.8 40.9285 35.1L47.0035 24L52.5535 27.075Z" fill="#D1B06B"></path></svg>